<?xml version="1.0" encoding="UTF-8" standalone="no"?>
<svg
   width="71"
   height="417"
   viewBox="0 0 71 417"
   fill="none"
   version="1.1"
   id="svg952"
   sodipodi:docname="Forma 2.svg"
   inkscape:version="1.1 (c68e22c387, 2021-05-23)"
   xmlns:inkscape="http://www.inkscape.org/namespaces/inkscape"
   xmlns:sodipodi="http://sodipodi.sourceforge.net/DTD/sodipodi-0.dtd"
   xmlns="http://www.w3.org/2000/svg"
   xmlns:svg="http://www.w3.org/2000/svg">
  <defs
     id="defs956" />
  <sodipodi:namedview
     id="namedview954"
     pagecolor="#ffffff"
     bordercolor="#666666"
     borderopacity="1.0"
     inkscape:pageshadow="2"
     inkscape:pageopacity="0.0"
     inkscape:pagecheckerboard="0"
     showgrid="false"
     inkscape:zoom="1.2470024"
     inkscape:cx="-128.30769"
     inkscape:cy="208.09904"
     inkscape:window-width="1366"
     inkscape:window-height="705"
     inkscape:window-x="-8"
     inkscape:window-y="-8"
     inkscape:window-maximized="1"
     inkscape:current-layer="svg952" />
  <path
     d="M30.2283 154.5C23.0283 94.1 64.2283 37 85.7283 16V397.5C12.9283 376.3 3.03751 324.784 22.7282 295.5C53.9955 249 37.4283 214.9 30.2283 154.5Z"
     fill="#36D6AD"
     id="path948"
     style="fill:#0aaca1;fill-opacity:1" />
  <path
     d="m 85.7283,1 c -35.2284,20 -78.22837,94.5 -71.5,153.5 6.7283,59 29.3788,81.595 0,132 -26.2284,45 -15.30004,106.3 71.5,129.5 m 0,-400 c -21.5,21 -62.7,78.1 -55.5,138.5 7.2,60.4 23.7672,94.5 -7.5001,141 -19.69069,29.284 -9.7999,80.8 63.0001,102 z"
     stroke="#36d6ad"
     stroke-width="2"
     id="path950"
     style="stroke:#0aaca1;stroke-opacity:1" />
</svg>
