<?xml version="1.0" encoding="UTF-8" standalone="no"?>
<svg
   width="125"
   height="181"
   viewBox="0 0 125 181"
   fill="none"
   version="1.1"
   id="svg167"
   sodipodi:docname="Patas.svg"
   inkscape:version="1.1 (c68e22c387, 2021-05-23)"
   xmlns:inkscape="http://www.inkscape.org/namespaces/inkscape"
   xmlns:sodipodi="http://sodipodi.sourceforge.net/DTD/sodipodi-0.dtd"
   xmlns="http://www.w3.org/2000/svg"
   xmlns:svg="http://www.w3.org/2000/svg">
  <sodipodi:namedview
     id="namedview169"
     pagecolor="#ffffff"
     bordercolor="#666666"
     borderopacity="1.0"
     inkscape:pageshadow="2"
     inkscape:pageopacity="0.0"
     inkscape:pagecheckerboard="0"
     showgrid="false"
     inkscape:zoom="2.7458564"
     inkscape:cx="62.093561"
     inkscape:cy="93.777666"
     inkscape:window-width="1366"
     inkscape:window-height="705"
     inkscape:window-x="-8"
     inkscape:window-y="-8"
     inkscape:window-maximized="1"
     inkscape:current-layer="svg167" />
  <g
     id="g2001"
     transform="matrix(0.8892865,0,0,0.8594917,6.4514987,13.013425)">
    <path
       d="m 59.063171,107.84205 c 0,0 -5.6451,-5.6601 -6.926,-4.7608 -1.5974,1.1148 3.1866,7.9864 3.1866,7.9864 z"
       fill="#7a796e"
       id="path90" />
    <path
       d="m 43.609971,124.48915 c 0,0 -7.4651,-2.8272 -8.269,-1.4749 -0.998,1.6751 6.1969,5.9544 6.1969,5.9544 z"
       fill="#7a796e"
       id="path92" />
    <path
       d="m 62.265071,172.62075 c 0,0 -5.0063,6.218 -6.3822,5.466 -1.7077,-0.94 2.3317,-8.279 2.3317,-8.279 z"
       fill="#7a796e"
       id="path94" />
    <path
       d="m 45.144871,157.70275 c 0,0 -7.1238,3.602 -8.0678,2.342 -1.1684,-1.559 5.5327,-6.577 5.5327,-6.577 z"
       fill="#7a796e"
       id="path96" />
    <g
       id="g1963"
       transform="translate(-0.7654,1.8805)">
      <path
         d="m 59.828571,105.96155 c -12.213,4.0151 -6.6741,15.1818 -6.6741,15.1818 0,0 -11.9479,-2.4109 -13.3882,6.5943 -1.1569,7.2382 4.0438,12.1883 5.6798,13.0818 -1.4322,0.9219 -6.541,7.405 -3.7479,14.4533 3.4244,8.639 13.199,4.471 13.199,4.471 0,0 -4.4085,11.667 8.1385,14.449 10.0703,2.238 10.7706,-12.51 15.2159,-13.296 4.4453,-0.787 63.021799,2.734 63.021799,2.734 l -2.55,-54.894 c 0,0 -57.931999,9.2922 -62.433799,8.9495 -4.5018,-0.3426 -6.6534,-14.9462 -16.461,-11.7247 z"
         fill="#fcf0e3"
         id="path98"
         style="fill:#aa4400" />
    </g>
    <path
       d="m 59.709471,139.88165 c 0.2653,8.0958 6.6783,15.3491 10.7926,10.9501 4.1144,-4.4004 -1.4977,-6.7318 -1.6529,-11.4684 -0.1466,-4.4732 4.2428,-6.9624 1.5636,-10.714 -2.6792,-3.7516 -11.0038,2.0635 -10.7033,11.2323 z"
       fill="#1a1a1a"
       id="path100" />
    <path
       d="m 60.565771,164.49775 c -1.2767,2.217 -0.9104,4.172 0.6712,5.012 1.9428,1.032 3.6836,-0.646 4.7652,-2.806 1.0816,-2.16 0.7967,-4.248 -0.5518,-4.938 -1.3486,-0.69 -3.6064,0.504 -4.8846,2.732 z"
       fill="#1a1a1a"
       id="path102" />
    <path
       d="m 53.281571,148.22615 c -0.9533,-1.1815 -3.4998,-1.0043 -5.5701,0.4989 -2.0702,1.5037 -2.5313,3.4377 -1.4302,4.8487 1.3536,1.737 3.6334,0.918 5.4941,-0.613 1.8607,-1.532 2.4574,-3.553 1.5062,-4.7346 z"
       fill="#1a1a1a"
       id="path104" />
    <path
       d="m 58.824871,111.85915 c -1.4209,1.0875 -1.4591,3.0768 0.1656,5.0545 1.6247,1.9778 4.0441,2.7969 5.2622,1.8879 1.2181,-0.909 1.1513,-3.0081 -0.264,-4.9615 -1.4153,-1.9533 -3.4158,-3.3193 -5.1638,-1.9809 z"
       fill="#1a1a1a"
       id="path106" />
    <path
       d="m 45.130771,129.42315 c -0.8532,1.5746 -0.0834,3.4066 2.21,4.5481 2.2934,1.1415 4.83,0.8963 5.5744,-0.4268 0.7444,-1.3231 -0.1757,-3.2185 -2.2623,-4.4175 -2.0867,-1.1991 -4.4701,-1.6365 -5.5221,0.2962 z"
       fill="#1a1a1a"
       id="path108" />
    <path
       d="m 81.727971,156.78475 c 1.5065,0.039 3.0149,0.073 4.5203,0.135 1.156,0.05 2.481,0.024 3.5854,0.344 0.6082,0.175 1.2961,-0.254 1.4386,-0.727 0.1766,-0.56 -0.2607,-0.993 -0.869,-1.169 -1.2321,-0.35 -2.7189,-0.323 -4.0117,-0.382 -1.574,-0.073 -3.1525,-0.105 -4.7274,-0.146 -1.5338,-0.037 -1.4603,1.907 0.064,1.951 z"
       fill="#2d2b2c"
       id="path110" />
    <path
       d="m 88.092071,152.55375 c 1.4478,-0.208 2.8955,-0.418 4.3504,-0.588 1.0877,-0.13 2.719,-0.332 3.555,-0.226 1.5039,0.193 2.0889,-1.703 0.5697,-1.896 -1.3061,-0.168 -2.6653,0.006 -3.967,0.152 -1.5309,0.169 -3.0503,0.395 -4.5719,0.613 -0.6404,0.091 -1.1753,0.429 -1.1561,1.014 0.0156,0.478 0.5776,1.026 1.2201,0.936 z"
       fill="#2d2b2c"
       id="path112" />
    <path
       d="m 84.069971,146.03145 c 0.9485,-0.2127 1.8688,-0.5104 2.7918,-0.7867 0.4885,-0.1468 0.981,-0.2919 1.4738,-0.4271 0.1931,-0.0571 0.4039,-0.109 0.609,-0.1567 0.0832,-0.0203 0.1684,-0.0388 0.2517,-0.0552 0.3525,-0.074 -0.2084,0.007 0.0623,-0.002 1.5254,-0.1027 1.4675,-2.0479 -0.0639,-1.9508 -0.9047,0.0609 -1.7934,0.3712 -2.6392,0.6216 -1.0525,0.3118 -2.0981,0.6546 -3.178,0.9029 -1.4847,0.3318 -0.7902,2.1858 0.6925,1.854 z"
       fill="#2d2b2c"
       id="path114" />
    <path
       d="m 81.493471,135.11945 c 3.2837,0.004 6.5364,-0.4622 9.8142,-0.5813 1.5329,-0.0503 1.4689,-2.0011 -0.064,-1.9508 -3.2777,0.1191 -6.5304,0.585 -9.8141,0.5813 -1.5347,-0.002 -1.4651,1.9424 0.0639,1.9508 z"
       fill="#2d2b2c"
       id="path116" />
    <path
       d="m 95.100871,138.95595 c 2.2668,-0.2051 4.5795,-0.15 6.803499,-0.6467 1.482,-0.3357 0.788,-2.1897 -0.695,-1.856 -2.000999,0.4562 -4.121299,0.3714 -6.168399,0.5576 -1.5164,0.1376 -1.4624,2.0829 0.064,1.9508 z"
       fill="#2d2b2c"
       id="path118" />
    <path
       d="m 97.771271,129.52015 c 1.4191,-0.5445 3.071099,-0.7139 4.613099,-0.6667 1.542,0.0471 1.457,-1.8972 -0.064,-1.9509 -1.98,-0.0626 -3.951999,0.2675 -5.804199,0.9714 -0.1252,0.0501 -0.2372,0.1283 -0.3275,0.2285 -0.0902,0.1003 -0.1563,0.22 -0.1931,0.3498 -0.0368,0.1299 -0.0434,0.2665 -0.0192,0.3993 0.0242,0.1328 0.0786,0.2583 0.1588,0.3668 0.3728,0.4877 1.0466,0.5223 1.6358,0.294 z"
       fill="#2d2b2c"
       id="path120" />
    <path
       d="m 81.858271,126.89545 c 2.0161,-0.359 3.7284,-1.5985 5.8131,-1.7118 1.5278,-0.0852 1.468,-2.0303 -0.064,-1.9508 -2.359,0.1281 -4.1873,1.3988 -6.4438,1.8028 -1.5004,0.2679 -0.7981,2.1216 0.6945,1.854 z"
       fill="#2d2b2c"
       id="path122" />
    <path
       d="m 100.37937,120.97275 c 2.828,-0.7586 5.802,-0.9712 8.674,-1.5829 1.489,-0.3144 0.79,-2.1741 -0.695,-1.854 -2.87,0.6058 -5.846,0.8243 -8.671999,1.5809 -1.459,0.3916 -0.772,2.2478 0.692999,1.856 z"
       fill="#2d2b2c"
       id="path124" />
    <path
       d="m 112.87137,129.41795 c 2.267,-0.211 4.52,-0.525 6.804,-0.6135 1.531,-0.0502 1.469,-2.0011 -0.064,-1.9509 -2.28,0.0865 -4.534,0.4006 -6.804,0.6136 -1.516,0.1415 -1.464,2.0868 0.064,1.9508 z"
       fill="#2d2b2c"
       id="path126" />
    <path
       d="m 99.942371,146.32395 c 2.009999,0.061 4.016999,0.1222 6.028999,0.0621 1.533,-0.0502 1.47,-1.9893 -0.064,-1.9508 -2.012,0.066 -4.018,-0.001 -6.028999,-0.0621 -1.532,-0.0455 -1.457,1.899 0.064,1.9508 z"
       fill="#2d2b2c"
       id="path128" />
    <path
       d="m 97.300971,157.66675 c 2.0994,0.213 4.119399,0.752 6.218399,0.968 1.504,0.146 2.088,-1.742 0.57,-1.895 -2.099,-0.212 -4.118999,-0.752 -6.216899,-0.968 -1.5061,-0.146 -2.0877,1.742 -0.5715,1.895 z"
       fill="#2d2b2c"
       id="path130" />
    <path
       d="m 106.99437,153.36875 c 2.43,-0.212 4.861,-0.421 7.271,-0.757 0.641,-0.09 1.176,-0.429 1.157,-1.015 -0.016,-0.478 -0.578,-1.024 -1.221,-0.936 -2.41,0.337 -4.841,0.549 -7.271,0.758 -1.519,0.131 -1.465,2.079 0.064,1.95 z"
       fill="#2d2b2c"
       id="path132" />
    <path
       d="m 120.74337,156.67475 c 2.881,-0.208 5.759,-0.013 8.536,-0.835 1.443,-0.424 0.76,-2.282 -0.692,-1.854 -2.569,0.758 -5.247,0.551 -7.908,0.744 -1.523,0.11 -1.467,2.055 0.064,1.95 z"
       fill="#2d2b2c"
       id="path134" />
    <path
       d="m 116.30537,147.08655 c 2.506,-0.1055 4.918,-0.6845 7.249,-1.4405 1.42,-0.4625 0.741,-2.3209 -0.695,-1.854 -2.133,0.693 -4.32,1.2528 -6.618,1.3496 -1.531,0.0638 -1.469,2.001 0.064,1.9508 z"
       fill="#2d2b2c"
       id="path136" />
    <path
       d="m 108.61337,139.90585 c 2.351,-0.4477 4.723,-0.7738 7.107,-0.977 1.518,-0.1357 1.464,-2.081 -0.064,-1.9508 -2.595,0.2228 -5.177,0.5792 -7.735,1.0678 -1.496,0.2912 -0.796,2.1431 0.692,1.8541 z"
       fill="#2d2b2c"
       id="path138" />
    <path
       d="m 119.68137,133.96165 c 2.088,-0.664 4.849,-0.7838 6.973,-0.2285 1.458,0.3839 2.014,-1.517 0.572,-1.8955 -2.474,-0.6493 -5.802,-0.5051 -8.237,0.27 -1.426,0.4549 -0.747,2.3133 0.692,1.854 z"
       fill="#2d2b2c"
       id="path140" />
    <path
       d="m 123.18437,123.34995 c 0.112,-0.0896 -0.224,0.1187 0.063,-0.0216 0.114,-0.0486 0.104,-0.0483 -0.027,9e-4 0.1,-0.0384 0.205,-0.0711 0.307,-0.1018 0.385,-0.1151 0.777,-0.2087 1.172,-0.2806 0.972,-0.1815 1.952,-0.3133 2.937,-0.3951 1.038,-0.0984 2.086,-0.1561 3.13,-0.1708 0.797,-0.0105 1.202,-0.0394 1.861,0.1343 1.454,0.3898 2.008,-1.511 0.57,-1.8974 -0.777,-0.2069 -1.683,-0.1831 -2.494,-0.178 -1.17,0.009 -2.337,0.0922 -3.503,0.2066 -1.173,0.1066 -2.339,0.2752 -3.494,0.5051 -0.797,0.1648 -1.654,0.392 -2.256,0.8765 -1.104,0.8876 0.626,2.2038 1.724,1.3106 z"
       fill="#2d2b2c"
       id="path142" />
    <path
       d="m 112.23437,123.05485 c 0.812,-0.7922 2.141,-1.1189 3.196,-1.6397 1.32,-0.6507 0.068,-2.2911 -1.255,-1.6404 -1.25,0.6269 -2.696,1.018 -3.665,1.9598 -0.97,0.9418 0.73,2.2902 1.724,1.3203 z"
       fill="#2d2b2c"
       id="path144" />
    <path
       d="m 86.270971,121.20475 c 1.9082,-0.0821 3.7804,-0.4871 5.6966,-0.4445 1.5336,0.0318 1.4601,-1.9129 -0.064,-1.9508 -1.9161,-0.0427 -3.7884,0.3624 -5.6965,0.4464 -1.5304,0.0658 -1.469,2.0011 0.0639,1.9508 z"
       fill="#2d2b2c"
       id="path146" />
    <g
       opacity="0.26"
       id="g158"
       transform="translate(-1.9326288,48.956751)">
      <path
         opacity="0.26"
         d="m 64.5811,96.4082 c 1.7887,3.7668 4.6139,5.2508 5.8384,3.9388 1.2244,-1.3113 -2.7122,-3.1488 -3.3563,-5.6079 -0.6041,-2.31 -0.9613,-6.0694 -2.109,-6.2856 -1.915,-0.361 -2.3041,3.8876 -0.3731,7.9547 z"
         fill="#f08641"
         id="path148" />
      <path
         opacity="0.26"
         d="m 64.2743,119.992 c 0.7789,0.624 1.7784,-0.412 2.3859,-1.153 0.5082,-0.616 1.1496,-1.572 0.61,-2.09 -0.5395,-0.517 -1.352,0.392 -1.9467,0.871 -0.5946,0.478 -1.6841,1.861 -1.0492,2.372 z"
         fill="#f08641"
         id="path150" />
      <path
         opacity="0.26"
         d="m 49.0831,104.114 c 0.3754,0.925 1.7519,0.505 2.6432,0.156 0.7431,-0.292 1.7692,-0.814 1.5488,-1.529 -0.2204,-0.716 -1.3751,-0.313 -2.1237,-0.189 -0.7486,0.124 -2.3758,0.807 -2.0683,1.562 z"
         fill="#f08641"
         id="path152" />
      <path
         opacity="0.26"
         d="m 47.8221,81.5448 c -0.5718,0.8175 0.5269,1.7403 1.3038,2.3008 0.6471,0.467 1.6429,1.0456 2.1234,0.4733 0.4804,-0.5723 -0.4781,-1.3182 -0.996,-1.889 -0.5178,-0.5709 -1.9656,-1.5526 -2.4312,-0.8851 z"
         fill="#f08641"
         id="path154" />
      <path
         opacity="0.26"
         d="m 60.9846,64.1137 c -0.7892,0.6117 -0.0182,1.8265 0.5568,2.5928 0.4792,0.6385 1.2557,1.4879 1.886,1.0845 0.6302,-0.4034 -0.0634,-1.4001 -0.3867,-2.1003 -0.3232,-0.7003 -1.4115,-2.0766 -2.0561,-1.577 z"
         fill="#f08641"
         id="path156" />
    </g>
  </g>
  <defs
     id="defs165">
    <clipPath
       id="clip0_518_122">
      <rect
         width="75.2458"
         height="104.652"
         fill="white"
         transform="translate(38.9941 129.821) rotate(-91.877)"
         id="rect162" />
    </clipPath>
    <clipPath
       id="clip0_518_105">
      <rect
         width="54.1412"
         height="96.4698"
         fill="white"
         transform="translate(54.624 98.3906) rotate(-136.998)"
         id="rect405" />
    </clipPath>
    <clipPath
       id="clip0_518_164">
      <rect
         width="71.475"
         height="99.6053"
         fill="white"
         transform="translate(70.835 100.029) rotate(-172.328)"
         id="rect519" />
    </clipPath>
  </defs>
  <g
     id="g4169"
     transform="matrix(0.88023294,0,0,0.89516416,22.425279,-2.7026067)">
    <g
       id="g2215">
      <g
         id="g2197">
        <path
           d="m 57.5575,70.73429 c -3.1892,3.8715 -8.7617,11.7946 -6.7089,15.3124 2.035,3.4776 5.0947,2.7712 5.0947,2.7712 0,0 -4.8308,6.6112 -1.9636,10.9043 3.5427,5.3075 8.6175,2.6153 8.6175,2.6153 0,0 -2.3015,5.2653 3.2527,8.4046 4.4955,2.5415 10.7354,-2.7608 10.7354,-2.7608 0,0 -0.4816,3.1079 3.1436,4.8747 3.6599,1.786 11.1417,-4.3539 14.7646,-7.8209 3.9985,-3.8276 50.1764,-52.2915 50.1764,-52.2915 L 104.9896,15.90691 c 0,0 -43.9121,50.55618 -47.4321,54.82738 z"
           fill="#deb180"
           id="path373"
           style="fill:#c8b7b7" />
      </g>
      <path
         d="m 73.0105,89.82939 c 5.8534,5.4325 15.3904,5.9695 15.17,0.0294 -0.2204,-5.94 -5.755,-3.6213 -9.1745,-6.7971 -3.2271,-3.0095 -1.9284,-7.812 -6.4137,-8.5352 -4.4853,-0.7232 -6.2124,9.1457 0.4182,15.3029 z"
         fill="#2d2b2c"
         id="path375" />
      <path
         d="m 81.3354,109.51779 c 1.7139,1.3351 3.6954,-0.0107 5.1097,-1.9224 1.4143,-1.9117 1.4917,-3.9933 0.293,-4.89 -1.1987,-0.8967 -3.5878,-0.1047 -5.2097,1.8292 -1.622,1.934 -1.5862,3.8999 -0.193,4.9832 z"
         fill="#2d2b2c"
         id="path377" />
      <path
         d="m 72.5376,100.62839 c -1.2001,-0.898 -3.5878,-0.1047 -5.211,1.8306 -1.6232,1.9354 -1.5902,3.9014 -0.193,4.9832 1.7139,1.3351 3.6955,-0.0107 5.111,-1.9238 1.4156,-1.9131 1.4917,-3.9933 0.293,-4.89 z"
         fill="#2d2b2c"
         id="path379" />
      <path
         d="m 62.9513,91.72779 c -1.1987,-0.8967 -3.5891,-0.1033 -5.2096,1.8319 -1.6205,1.9353 -1.5902,3.9014 -0.193,4.9832 1.7125,1.3337 3.6955,-0.0107 5.1097,-1.9224 1.4143,-1.9117 1.4903,-3.9946 0.2929,-4.8927 z"
         fill="#2d2b2c"
         id="path381" />
      <path
         d="m 55.0825,79.97909 c -1.6176,1.9406 -1.5902,3.9014 -0.193,4.9832 1.7125,1.3337 3.6955,-0.0107 5.1111,-1.9238 1.4156,-1.9131 1.4902,-3.9946 0.2916,-4.8913 -1.1987,-0.8967 -3.5949,-0.1113 -5.2097,1.8319 z"
         fill="#2d2b2c"
         id="path383" />
      <g
         opacity="0.2"
         id="g395"
         transform="translate(24.2539,24.89589)"
         style="fill:none">
        <path
           opacity="0.2"
           d="m 54.6599,66.3418 c 3.8808,1.3601 6.8843,0.4091 6.8186,-1.3609 -0.0657,-1.7701 -4.0913,-0.2847 -6.2615,-1.5398 -2.0369,-1.1807 -4.921,-3.536 -5.8669,-2.8831 -1.5845,1.0921 1.1201,4.3147 5.3098,5.7838 z"
           fill="#ffffff"
           id="path385" />
        <path
           opacity="0.2"
           d="m 58.1737,83.4201 c 0.6853,0.7076 1.7866,-0.1769 2.4804,-0.8305 0.5751,-0.5405 1.3231,-1.399 0.8578,-1.9699 -0.4654,-0.5709 -1.3657,0.2167 -2.0155,0.6086 -0.6498,0.3919 -1.881,1.6133 -1.3227,2.1918 z"
           fill="#ffffff"
           id="path387" />
        <path
           opacity="0.2"
           d="m 46.967,78.8755 c -0.4654,-0.5736 -1.3656,0.2167 -2.0167,0.61 -0.6511,0.3933 -1.8797,1.6119 -1.3215,2.1904 0.684,0.709 1.7866,-0.1769 2.4804,-0.8305 0.5778,-0.5433 1.3245,-1.4004 0.8578,-1.9699 z"
           fill="#ffffff"
           id="path389" />
        <path
           opacity="0.2"
           d="m 34.1014,72.6094 c 0.684,0.709 1.7866,-0.1769 2.4804,-0.8305 0.5738,-0.5391 1.3245,-1.3977 0.8564,-1.9685 -0.468,-0.5708 -1.3643,0.2153 -2.0154,0.6086 -0.6511,0.3933 -1.881,1.6133 -1.3214,2.1904 z"
           fill="#ffffff"
           id="path391" />
        <path
           opacity="0.2"
           d="m 31.2605,58.7193 c 0.6841,0.709 1.7866,-0.1769 2.4804,-0.8306 0.5739,-0.5391 1.3246,-1.3977 0.8578,-1.9698 -0.4667,-0.5722 -1.3656,0.2166 -2.0167,0.6099 -0.6511,0.3933 -1.881,1.6134 -1.3215,2.1905 z"
           fill="#ffffff"
           id="path393" />
      </g>
      <path
         d="m 107.8271,23.58726 c -1.7468,-1.64232 -3.5997,-3.16802 -5.5467,-4.56722 -1.9554,2.25486 -4.8422,5.578958 -8.2253,9.47761 6.3094,5.65489 14.6736,11.13034 16.5743,12.23404 8.1088,4.7133 17.1475,7.8288 24.0975,14.2868 1.237,1.1542 2.608,2.5135 3.936,4.0187 2.024,-2.1224 3.644,-3.8219 4.69,-4.9184 -1.881,-1.009 -3.776,-2.0517 -5.634,-3.2373 -7.817,-4.9836 -14.0864,-12.6098 -20.8779,-18.92763 z"
         fill="#2d2b2c"
         id="path397" />
      <path
         d="m 84.3718,39.66689 c 1.413,3.532 4.7876,6.0446 7.8335,8.6218 10.1103,8.5966 21.7904,17.2827 30.4022,27.5624 2.4174,-2.5271 4.7894,-5.0117 7.0424,-7.371 -2.391,-2.3276 -4.284,-4.4057 -4.92,-5.115 -8.9822,-9.8458 -19.4208,-27.6767 -33.7101,-31.36605 -2.1282,2.45435 -4.3679,5.03655 -6.648,7.66785 z"
         fill="#2d2b2c"
         id="path399" />
      <path
         d="m 75.2524,50.19069 c -3.0173,3.4867 -5.9024,6.8203 -8.4454,9.7646 1.834,2.8652 3.9511,5.5391 6.3194,7.9813 5.9154,6.0773 12.6994,11.198 19.5194,16.1811 4.3823,3.2048 9.1963,5.7828 13.885,8.515 2.4388,-2.536 5.0955,-5.3085 7.8376,-8.1699 -9.6813,-7.7779 -18.1236,-17.2966 -27.5992,-25.3065 -1.3421,-1.1437 -6.3958,-5.517 -11.5168,-8.9656 z"
         fill="#2d2b2c"
         id="path401" />
    </g>
  </g>
  <g
     id="g4189"
     transform="matrix(0.89507583,0,0,0.93020999,32.574289,8.106091)">
    <path
       d="m -27.415744,59.869354 c 0,0 -6.31209,4.2198 -5.71107,5.5889 0.74345,1.6966 8.02851,-1.5105 8.02851,-1.5105 z"
       fill="#2d2b2c"
       id="path481" />
    <path
       d="m -14.751604,77.357354 c 0,0 -4.0103,6.4464 -2.8981,7.4465 1.3766,1.238 6.6915,-4.689 6.6915,-4.689 z"
       fill="#2d2b2c"
       id="path483" />
    <path
       d="m 33.533296,68.806754 c 0,0 4.8773,5.8194 3.9179,6.9646 -1.1876,1.4109 -7.2836,-3.6989 -7.2836,-3.6989 z"
       fill="#2d2b2c"
       id="path485" />
    <path
       d="m 16.478896,82.047254 c 0,0 2.0431,7.311 0.6966,7.9484 -1.6791,0.8028 -5.1097,-6.3829 -5.1097,-6.3829 z"
       fill="#2d2b2c"
       id="path487" />
    <path
       d="m -29.028884,58.811614 c 1.49127,12.1359 12.92258,9.0239 12.92258,9.0239 0,0 -4.4487,10.7074 3.677,13.7087 6.5322,2.4116 12.102,-1.5312 13.2358,-2.8924 0.5944,1.5057 5.6941,7.467 12.7786,6.1573 8.6793,-1.6035 6.5969,-11.4941 6.5969,-11.4941 0,0 10.0525,6.2633 14.9624,-4.9376 3.9399,-8.9851 -9.6721,-12.3524 -9.5845,-16.6468 0.0876,-4.2945 14.1594,-58.3036959 14.1594,-58.3036959 l -51.618,-7.7271941 c 0,0 -2.0158,55.77859 -3.1623,59.91669 -1.1466,4.138 -15.16341,3.4555 -13.96788,13.1952 z"
       fill="#fdbf12"
       id="path489" />
    <path
       d="m 2.552096,65.168954 c 7.591,1.2425 15.5317,-3.4059 12.1916,-8.0561 -3.3402,-4.6501 -5.4816,-6.8139 -9.918,-7.5392 -4.196,-0.687 -6.7739,1.7306 -10.7623,3.5398 -3.9884,1.8093 -0.1007,10.6451 8.4887,12.0555 z"
       fill="#2d2b2c"
       id="path491" />
    <path
       d="m 25.650796,68.897654 c 1.8323,1.6017 3.721,1.6185 4.7942,0.2982 1.3205,-1.6247 0.0872,-3.562 -1.7367,-4.9643 -1.8238,-1.4023 -3.8102,-1.5246 -4.7031,-0.392 -0.8928,1.1325 -0.187,3.4583 1.6456,5.0581 z"
       fill="#2d2b2c"
       id="path493" />
    <path
       d="m 9.148996,72.701054 c -1.2689,0.6734 -1.5816,3.0819 -0.5615,5.291 1.02,2.209 2.7385,2.9942 4.2557,2.2266 1.867,-0.9443 1.5237,-3.2213 0.4391,-5.2426 -1.0845,-2.0214 -2.8569,-2.9455 -4.1333,-2.275 z"
       fill="#2d2b2c"
       id="path495" />
    <path
       d="m -23.716504,60.833154 c 0.7525,1.527 2.5983,1.921 4.7395,0.7779 2.1412,-1.143 3.3473,-3.2603 2.7298,-4.5649 -0.6176,-1.3046 -2.5905,-1.6293 -4.6721,-0.6667 -2.0815,0.9626 -3.7221,2.5737 -2.7972,4.4537 z"
       fill="#2d2b2c"
       id="path497" />
    <path
       d="m -9.870404,76.848554 c 1.3085,1.0875 3.1591,0.7025 4.6439,-1.2241 1.4848,-1.9266 1.7259,-4.3428 0.631,-5.2816 -1.0949,-0.9389 -3.0309,-0.4299 -4.538,1.2973 -1.507,1.7272 -2.3475,3.8702 -0.7369,5.2084 z"
       fill="#2d2b2c"
       id="path499" />
    <path
       d="m 18.095996,25.977654 c -5.7308,0.8224 -5.4579,9.7879 -3.4136,13.4309 1.8987,3.3976 7.7323,5.9508 12.2283,5.3154 1.1234,-5.0013 2.853,-12.1123 4.6854,-19.4608 -1.899,0.9773 -3.844,2.0349 -5.8792,2.2889 -2.7374,0.35 -5.1239,-1.9332 -7.6209,-1.5744 z"
       fill="#2d2b2c"
       id="path501" />
    <path
       d="m -13.594504,25.488354 c 5.4864,0.5977 10.0794,0.0578 15.1579,-3.3129 5.266,-3.4948 10.3043,-6.8592 16.0443,-9.5439 4.2471,-1.9806 6.3016,-4.0248999 7.052,-8.6188999 0.5989,-3.68754 1.0808,-8.47478 0.3753,-12.78575 l -36.9337,-5.5271801 c 0,0 -0.8112,22.3331301 -1.6958,39.78863 z"
       fill="#2d2b2c"
       id="path503" />
    <g
       opacity="0.33"
       id="g515"
       transform="translate(-35.565404,-7.4776459)"
       style="fill:none">
      <path
         opacity="0.33"
         d="m 43.6452,71.1194 c 3.839,-0.9772 5.7529,-3.3487 4.7465,-4.7253 -1.0065,-1.3766 -3.4363,1.9524 -5.8458,2.0991 -2.2631,0.1389 -5.832,-0.2182 -6.2457,0.812 -0.6895,1.7215 3.1995,2.8659 7.345,1.8142 z"
         fill="#deb180"
         id="path505" />
      <path
         opacity="0.33"
         d="m 65.5627,75.745 c 0.7261,-0.6091 -0.0571,-1.7337 -0.6333,-2.4416 -0.4805,-0.5871 -1.254,-1.3609 -1.8351,-0.9542 -0.581,0.4068 0.1158,1.3274 0.4504,1.9772 0.3346,0.6499 1.4264,1.9182 2.018,1.4186 z"
         fill="#deb180"
         id="path507" />
      <path
         opacity="0.33"
         d="m 47.9707,87.0005 c 0.9294,-0.1791 0.7968,-1.5421 0.6309,-2.4382 -0.1351,-0.7467 -0.433,-1.8001 -1.1422,-1.7248 -0.7092,0.0753 -0.5427,1.215 -0.5668,1.9481 -0.0242,0.7332 0.3158,2.3636 1.0781,2.2149 z"
         fill="#deb180"
         id="path509" />
      <path
         opacity="0.33"
         d="m 26.7063,84.0226 c 0.6569,0.6775 1.726,-0.1603 2.3923,-0.7912 0.5524,-0.5146 1.2762,-1.34 0.8306,-1.8949 -0.4456,-0.5549 -1.3156,0.2037 -1.9437,0.5806 -0.6281,0.3768 -1.8167,1.548 -1.2792,2.1055 z"
         fill="#deb180"
         id="path511" />
      <path
         opacity="0.33"
         d="m 12.8882,68.5311 c 0.4246,0.8427 1.7002,0.3528 2.5194,-0.0435 0.6846,-0.3299 1.6193,-0.8992 1.3589,-1.5606 -0.2604,-0.6615 -1.3166,-0.197 -2.0269,-0.0257 -0.7104,0.1714 -2.1944,0.9258 -1.8514,1.6298 z"
         fill="#deb180"
         id="path513" />
    </g>
  </g>
</svg>
